<svg width="30" height="30" viewBox="0 0 30 30" fill="none" xmlns="http://www.w3.org/2000/svg">
<g clip-path="url(#clip0)">
<path d="M29.994 30.0009V29.9996H30.0015V18.9966C30.0015 13.6139 28.8428 9.46744 22.5503 9.46744C19.5253 9.46744 17.4953 11.1275 16.6665 12.7013H16.579V9.96996H10.6128V29.9996H16.8253V20.0817C16.8253 17.4703 17.3203 14.9452 20.554 14.9452C23.7403 14.9452 23.7878 17.9253 23.7878 20.2492V30.0009H29.994Z" fill="white"/>
<path d="M0.494415 9.97104H6.71442V29.9998H0.494415V9.97104Z" fill="white"/>
<path d="M3.6025 0C1.61375 0 0 1.61375 0 3.6025C0 5.59125 1.61375 7.23875 3.6025 7.23875C5.59125 7.23875 7.205 5.59125 7.205 3.6025C7.20375 1.61375 5.59 0 3.6025 0V0Z" fill="white"/>
</g>
<defs>
<clipPath id="clip0">
<rect width="30" height="30" fill="white"/>
</clipPath>
</defs>
</svg>
