<svg width="131" height="38" viewBox="0 0 131 38" fill="none" xmlns="http://www.w3.org/2000/svg">
<path d="M9.6 37L0.25 11.45H6.95L12.3 26.6C12.6 27.5 12.8333 28.2833 13 28.95C13.1667 28.2833 13.4 27.5 13.7 26.6L19 11.45H25.7L16.35 37H9.6ZM28.4797 8.45C27.4464 8.45 26.5464 8.08333 25.7797 7.35C25.0464 6.58333 24.6797 5.68333 24.6797 4.65C24.6797 3.61667 25.0464 2.73333 25.7797 2C26.513 1.26666 27.413 0.899997 28.4797 0.899997C29.5464 0.899997 30.4464 1.26666 31.1797 2C31.913 2.7 32.2797 3.58333 32.2797 4.65C32.2797 5.71667 31.913 6.61667 31.1797 7.35C30.4464 8.08333 29.5464 8.45 28.4797 8.45ZM25.2297 37V11.45H31.7297V37H25.2297ZM50.991 37.6C48.691 37.6 46.9577 36.7833 45.791 35.15V37H39.291V3.85L45.791 0.899997V13.3C47.091 11.6667 48.9077 10.85 51.241 10.85C54.341 10.85 56.8743 12.0667 58.841 14.5C60.841 16.9 61.841 20.1333 61.841 24.2C61.841 28.4667 60.8744 31.7667 58.941 34.1C57.0077 36.4333 54.3577 37.6 50.991 37.6ZM50.241 31.35C51.8743 31.35 53.1244 30.7167 53.991 29.45C54.891 28.1833 55.341 26.4333 55.341 24.2C55.341 21.9 54.891 20.15 53.991 18.95C53.1244 17.7167 51.8743 17.1 50.241 17.1C48.241 17.1 46.7577 17.8 45.791 19.2V29.3C46.7577 30.6667 48.241 31.35 50.241 31.35ZM73.2996 37.6C69.5996 37.6 66.6829 36.4167 64.5496 34.05C62.4163 31.6833 61.3496 28.4 61.3496 24.2C61.3496 20.1 62.4163 16.85 64.5496 14.45C66.7163 12.05 69.6329 10.85 73.2996 10.85C76.6329 10.85 79.3496 11.8833 81.4496 13.95C83.5496 15.9833 84.5996 18.9667 84.5996 22.9C84.5996 24.5333 84.5329 25.8167 84.3996 26.75H67.7496C67.8829 28.35 68.4663 29.6167 69.4996 30.55C70.5663 31.45 71.8329 31.9 73.2996 31.9C75.5663 31.9 77.3996 31.0167 78.7996 29.25L82.7996 33.3C80.4329 36.1667 77.2663 37.6 73.2996 37.6ZM67.7996 21.25H78.2496C78.0496 19.7833 77.4996 18.6333 76.5996 17.8C75.7329 16.9667 74.6329 16.55 73.2996 16.55C70.0329 16.55 68.1996 18.1167 67.7996 21.25ZM99.0281 37.6C96.9615 37.6 94.9948 37.1833 93.1281 36.35C91.2615 35.5167 89.8281 34.4 88.8281 33L93.1281 29.35C94.9615 31.1833 96.9615 32.1 99.1281 32.1C101.695 32.1 102.978 31.35 102.978 29.85C102.978 29.15 102.628 28.5833 101.928 28.15C101.261 27.6833 100.061 27.1167 98.3281 26.45C95.2948 25.45 93.0781 24.3333 91.6781 23.1C90.2781 21.8333 89.5781 20.15 89.5781 18.05C89.5781 15.8167 90.4615 14.0667 92.2281 12.8C93.9948 11.5 96.2115 10.85 98.8781 10.85C102.745 10.85 105.861 12.2167 108.228 14.95L103.878 18.5C102.345 17.0667 100.678 16.35 98.8781 16.35C96.7115 16.35 95.6281 16.9833 95.6281 18.25C95.6281 19.3167 97.2948 20.35 100.628 21.35C103.295 22.2167 105.361 23.2833 106.828 24.55C108.295 25.7833 109.028 27.55 109.028 29.85C109.028 32.3167 108.128 34.2333 106.328 35.6C104.528 36.9333 102.095 37.6 99.0281 37.6ZM124.285 37V35.15C122.652 36.7833 120.452 37.6 117.685 37.6C114.918 37.6 112.652 36.8667 110.885 35.4C109.152 33.9333 108.285 31.85 108.285 29.15C108.285 26.3833 109.268 24.2833 111.235 22.85C113.235 21.4167 115.635 20.7 118.435 20.7C120.668 20.7 122.618 21.1 124.285 21.9V20.6C124.285 17.9 122.752 16.55 119.685 16.55C116.885 16.55 114.252 17.4 111.785 19.1L109.785 13.85C112.752 11.85 116.235 10.85 120.235 10.85C121.602 10.85 122.802 10.9667 123.835 11.2C124.902 11.4333 126.002 11.8667 127.135 12.5C128.268 13.1333 129.135 14.15 129.735 15.55C130.368 16.9167 130.685 18.6333 130.685 20.7V37H124.285ZM118.935 31.9C120.968 31.9 122.752 31.2 124.285 29.8V27.05C122.885 26.4833 121.302 26.2 119.535 26.2C118.068 26.2 116.885 26.45 115.985 26.95C115.085 27.4167 114.635 28.15 114.635 29.15C114.635 29.9833 115.002 30.65 115.735 31.15C116.502 31.65 117.568 31.9 118.935 31.9Z" fill="#CA3E47"/>
</svg>
